<?xml version="1.0" standalone="no"?>
<!DOCTYPE svg PUBLIC "-//W3C//DTD SVG 20010904//EN"
 "http://www.w3.org/TR/2001/REC-SVG-20010904/DTD/svg10.dtd">
<svg version="1.0" xmlns="http://www.w3.org/2000/svg"
 width="200.000000pt" height="200.000000pt" viewBox="0 0 200.000000 200.000000"
 preserveAspectRatio="xMidYMid meet">
<metadata>
Created by potrace 1.14, written by Peter Selinger 2001-2017
</metadata>
<g transform="translate(0.000000,200.000000) scale(0.100000,-0.100000)"
fill="#000000" stroke="none">
<path d="M0 1000 l0 -1000 1000 0 1000 0 0 1000 0 1000 -1000 0 -1000 0 0
-1000z m722 834 c22 -3 60 -25 95 -53 47 -38 58 -52 58 -76 0 -40 -31 -47 -45
-10 -5 14 -18 28 -27 32 -10 3 -29 16 -43 28 -51 45 -247 57 -307 19 -12 -8
-29 -14 -37 -14 -8 0 -52 -37 -98 -82 -69 -69 -86 -91 -96 -130 -18 -72 -7
-103 65 -179 66 -70 193 -179 209 -179 10 0 27 -16 195 -175 58 -55 138 -129
177 -164 41 -37 96 -101 129 -150 l58 -86 3 -97 4 -98 -41 -40 c-23 -23 -48
-52 -57 -65 -9 -14 -20 -25 -25 -25 -5 0 -33 -11 -62 -25 -44 -22 -71 -27
-180 -32 -103 -5 -133 -3 -160 9 -17 9 -50 21 -72 28 -148 46 -273 141 -290
222 -14 63 35 63 60 0 27 -67 107 -120 270 -181 61 -22 84 -26 183 -24 135 1
174 16 265 103 57 54 57 55 57 113 0 31 -6 73 -14 91 -16 39 -120 181 -140
193 -8 4 -85 76 -171 158 -87 83 -196 179 -244 215 -120 90 -240 207 -262 255
-24 52 -24 107 1 175 35 99 208 241 310 253 43 6 181 0 232 -9z m778 -193 c5
-11 10 -29 10 -41 0 -11 6 -31 14 -43 8 -12 17 -58 21 -102 4 -44 11 -98 17
-120 10 -40 69 -133 94 -148 8 -4 14 -19 14 -32 0 -38 -35 -32 -75 13 -56 59
-86 133 -97 231 -10 93 -14 106 -22 70 -2 -13 -11 -56 -20 -95 -11 -50 -16
-121 -16 -235 1 -161 5 -190 50 -384 5 -22 9 -60 9 -85 1 -46 -30 -188 -45
-212 -5 -7 -11 -65 -14 -128 -5 -107 -6 -115 -25 -115 -19 0 -20 8 -23 115 -2
82 1 125 11 150 31 75 49 177 42 232 -4 29 -12 61 -17 71 -38 72 -53 489 -22
609 8 33 13 65 11 71 -5 16 -67 -72 -67 -96 0 -56 -159 -247 -194 -234 -26 10
-18 49 20 106 26 39 41 52 54 48 19 -5 26 7 88 141 9 19 42 66 74 105 31 40
58 81 58 93 0 38 32 48 50 15z"/>
</g>
</svg>
